<svg xmlns="http://www.w3.org/2000/svg" xmlns:xlink="http://www.w3.org/1999/xlink" aria-hidden="true" role="img" class="iconify iconify--material-symbols" width="32" height="32" preserveAspectRatio="xMidYMid meet" viewBox="0 0 24 24"><path fill="currentColor" d="M8.3 20.125q-.575.45-1.175.025q-.6-.425-.4-1.125L8.15 14.4l-3.625-2.575q-.6-.425-.362-1.125q.237-.7.962-.7H9.6l1.45-4.8q.125-.35.388-.538q.262-.187.562-.187q.3 0 .562.187q.263.188.388.538L14.4 10h4.475q.725 0 .963.7q.237.7-.363 1.125L15.85 14.4l1.425 4.625q.2.7-.4 1.125q-.6.425-1.175-.025L12 17.3Z"></path></svg>