<svg xmlns="http://www.w3.org/2000/svg" xmlns:xlink="http://www.w3.org/1999/xlink" aria-hidden="true" role="img" class="iconify iconify--material-symbols" width="32" height="32" preserveAspectRatio="xMidYMid meet" viewBox="0 0 24 24"><path fill="currentColor" d="m6.7 19.3l-2.75-.6q-.375-.075-.6-.388q-.225-.312-.175-.687L3.45 14.8l-1.875-2.15q-.25-.275-.25-.65t.25-.65L3.45 9.2l-.275-2.825q-.05-.375.175-.687q.225-.313.6-.388l2.75-.6l1.45-2.45q.2-.325.55-.425q.35-.1.7.025l2.6 1.1l2.6-1.1q.35-.125.7-.025t.55.425L17.3 4.7l2.75.6q.375.075.6.388q.225.312.175.687L20.55 9.2l1.875 2.15q.25.275.25.65t-.25.65L20.55 14.8l.275 2.825q.05.375-.175.687q-.225.313-.6.388l-2.75.6l-1.45 2.45q-.2.325-.55.425q-.35.1-.7-.025l-2.6-1.1l-2.6 1.1q-.35.125-.7.025t-.55-.425Zm3.55-4.45q.275.275.7.275q.425 0 .7-.275l4.25-4.25q.3-.3.3-.713q0-.412-.3-.712t-.712-.3q-.413 0-.713.3L10.95 12.7L9.5 11.275q-.3-.275-.712-.263q-.413.013-.688.288q-.275.275-.275.7q0 .425.275.7Z"></path></svg>